<?xml version="1.0" encoding="utf-8"?><svg version="1.1" id="Layer_1" xmlns="http://www.w3.org/2000/svg" xmlns:xlink="http://www.w3.org/1999/xlink" x="0px" y="0px" viewBox="0 0 122.88 118.71" style="enable-background:new 0 0 122.88 118.71" xml:space="preserve"><style type="text/css">.st0{fill-rule:evenodd;clip-rule:evenodd;}</style><g><path class="st0" d="M52.79,0c-2.97,29.02-14.84,47.18-38.31,50.87c4.14-5.15,3.87-13.5,4.93-20.14 c-2.69,7.48-5.68,14.66-9.83,20.68c-1.41,0.1-2.86,0.15-4.34,0.15c2.91-6.11,4.6-12.23,5.27-18.34 c-2.39,6.63-5.05,12.99-8.79,18.27c-0.56-0.03-1.13-0.06-1.71-0.1V0.02h52.79V0L52.79,0L52.79,0z M110.74,62.08h6.88 c-3.11,6.34-4.91,12.69-5.6,19.03c2.5-6.95,5.31-13.61,9.35-19.03h1.47c0,44.47-1.24,54.85-2.43,56.05 c-1.36,1.37-11.03-0.09-25.5,0C92.16,102.72,92.09,72.52,110.74,62.08L110.74,62.08z M27.84,118.12c-13.21,0.43-23.73,0-27.81,0 V62.08h1.25l-0.22,0.11c4.08,5.44,6.91,12.14,9.43,19.15c-0.7-6.42-2.53-12.84-5.71-19.25h6.2 C29.36,68.79,33.04,98.94,27.84,118.12L27.84,118.12z M111.45,53.79h6.96l0.03,0.06l0.12-0.06h4.32v6.04h-11.42V53.79L111.45,53.79 L111.45,53.79z M0,53.79h3.97l0.12,0.06l0.03-0.06h7.31v6.04H0V53.79L0,53.79L0,53.79z M122.88,0.02v51.37 c-0.67,0.08-1.34,0.13-2.01,0.18c-3.77-5.3-6.45-11.69-8.85-18.35c0.67,6.16,2.39,12.32,5.34,18.49c-1.46,0-2.91-0.06-4.34-0.19 c-4.18-6.05-7.19-13.27-9.9-20.79c1.05,6.6,0.79,14.9,4.86,20.05C84.5,46.08,67.25,24.11,67.25,0.02H122.88L122.88,0.02 L122.88,0.02z"/></g></svg>