<svg width="139" height="25" viewBox="0 0 139 25" fill="none" xmlns="http://www.w3.org/2000/svg">
<path d="M11.6019 3.63954C12.0499 2.56254 13.5779 2.56254 14.0259 3.63954L16.1079 8.64654L21.5119 9.07954C22.6759 9.17254 23.1479 10.6245 22.2609 11.3845L18.1439 14.9115L19.4009 20.1845C19.6719 21.3205 18.4369 22.2175 17.4409 21.6095L12.8139 18.7835L8.18689 21.6095C7.19089 22.2175 5.95589 21.3195 6.22689 20.1845L7.48389 14.9115L3.36689 11.3845C2.47989 10.6245 2.95189 9.17254 4.11589 9.07954L9.51989 8.64654L11.6019 3.64054V3.63954Z" fill="#FFB800"/>
<path d="M49.5067 3.63954C49.9547 2.56254 51.4827 2.56254 51.9307 3.63954L54.0127 8.64654L59.4167 9.07954C60.5807 9.17254 61.0527 10.6245 60.1657 11.3845L56.0487 14.9115L57.3057 20.1845C57.5767 21.3205 56.3417 22.2175 55.3457 21.6095L50.7187 18.7835L46.0917 21.6095C45.0957 22.2175 43.8607 21.3195 44.1317 20.1845L45.3887 14.9115L41.2717 11.3845C40.3847 10.6245 40.8567 9.17254 42.0207 9.07954L47.4247 8.64654L49.5067 3.64054V3.63954Z" fill="#FFB800"/>
<path d="M87.4115 3.63954C87.8595 2.56254 89.3875 2.56254 89.8355 3.63954L91.9175 8.64654L97.3215 9.07954C98.4855 9.17254 98.9575 10.6245 98.0705 11.3845L93.9535 14.9115L95.2105 20.1845C95.4815 21.3205 94.2465 22.2175 93.2505 21.6095L88.6235 18.7835L83.9965 21.6095C83.0005 22.2175 81.7655 21.3195 82.0365 20.1845L83.2935 14.9115L79.1765 11.3845C78.2895 10.6245 78.7615 9.17254 79.9255 9.07954L85.3295 8.64654L87.4115 3.64054V3.63954Z" fill="#FFB800"/>
<path d="M125.316 3.63954C125.764 2.56254 127.292 2.56254 127.74 3.63954L129.822 8.64654L135.226 9.07954C136.39 9.17254 136.862 10.6245 135.975 11.3845L131.858 14.9115L133.115 20.1845C133.386 21.3205 132.151 22.2175 131.155 21.6095L126.528 18.7835L121.901 21.6095C120.905 22.2175 119.67 21.3195 119.941 20.1845L121.198 14.9115L117.081 11.3845C116.194 10.6245 116.666 9.17254 117.83 9.07954L123.234 8.64654L125.316 3.64054V3.63954Z" fill="#FFB800"/>
</svg>
